
<svg version="1.1" id="Capa_1" xmlns="http://www.w3.org/2000/svg" xmlns:xlink="http://www.w3.org/1999/xlink" x="0px" y="0px"
	 viewBox="0 0 490 490" style="enable-background:new 0 0 490 490;" xml:space="preserve">
<g>
	<path d="M448.389,404.047H131.562V55.398C131.562,24.853,106.709,0,76.163,0H41.611v20.417h34.552
		c19.291,0,34.982,15.691,34.982,34.982v369.065h29.172c-4.068,6.563-6.433,14.288-6.433,22.56
		c0,23.697,19.281,42.976,42.977,42.976c23.697,0,42.977-19.279,42.977-42.976c0-8.273-2.364-15.997-6.433-22.56h142.922
		c-4.068,6.563-6.433,14.288-6.433,22.56c0,23.697,19.281,42.976,42.977,42.976c23.706,0,42.986-19.279,42.986-42.976
		c0-8.273-2.364-15.997-6.433-22.56h18.964V404.047z M199.422,447.024c0,12.441-10.12,22.56-22.56,22.56
		c-12.442,0-22.56-10.119-22.56-22.56c0-12.44,10.116-22.558,22.556-22.56h0.01C189.305,424.466,199.422,434.583,199.422,447.024z
		 M415.441,447.024c0,12.441-10.129,22.56-22.57,22.56c-12.442,0-22.56-10.119-22.56-22.56c0-12.44,10.116-22.558,22.556-22.56h0.01
		C405.316,424.466,415.441,434.583,415.441,447.024z"/>
	<path d="M439.307,88.087H162.536v292.792h276.771V88.087z M418.891,360.462H182.953V108.503h235.938V360.462z"/>
</g>
<g>
</g>
<g>
</g>
<g>
</g>
<g>
</g>
<g>
</g>
<g>
</g>
<g>
</g>
<g>
</g>
<g>
</g>
<g>
</g>
<g>
</g>
<g>
</g>
<g>
</g>
<g>
</g>
<g>
</g>
</svg>
