<?xml version="1.0" encoding="iso-8859-1"?>
<!-- Generator: Adobe Illustrator 19.0.0, SVG Export Plug-In . SVG Version: 6.00 Build 0)  -->
<svg version="1.1" id="Layer_1" xmlns="http://www.w3.org/2000/svg" xmlns:xlink="http://www.w3.org/1999/xlink" x="0px" y="0px"
	 viewBox="0 0 512 512" style="enable-background:new 0 0 512 512;" xml:space="preserve">
<g>
	<g>
		<g>
			<path d="M251.331,207.363c0,2.575,2.097,4.667,4.669,4.667h110.3c2.56,0,4.672-2.091,4.672-4.667v-2.952
				c0-2.57-2.112-4.68-4.672-4.68H256c-2.57,0-4.669,2.107-4.669,4.68V207.363z"/>
			<path d="M256,176.942h110.3c2.56,0,4.672-2.107,4.672-4.667v-2.962c0-2.56-2.112-4.669-4.672-4.669H256
				c-2.57,0-4.669,2.107-4.669,4.669v2.962C251.331,174.833,253.43,176.942,256,176.942z"/>
			<path d="M401.917,38.129h-61.486c0.01,0.389,0.054,0.771,0.054,1.16v33.856h49.764c6.423,0,11.668,5.24,11.668,11.668v298.793
				l-93.368,93.379H121.751c-6.423,0-11.668-5.256-11.668-11.668V84.81c0-6.428,5.245-11.668,11.668-11.668h49.777V39.288
				c0-0.389,0.031-0.771,0.051-1.16H110.08c-19.256,0-35.016,15.759-35.016,35.016v403.84C75.067,496.241,90.826,512,110.08,512
				h291.837c19.267,0,35.018-15.759,35.018-35.018V73.144C436.936,53.885,421.184,38.129,401.917,38.129z"/>
			<path d="M366.303,233.815H147.069c-2.57,0-4.675,2.107-4.675,4.669v2.967h0.003c0,2.557,2.102,4.664,4.675,4.664h219.231
				c2.56,0,4.672-2.107,4.672-4.664v-2.967C370.975,235.924,368.863,233.815,366.303,233.815z"/>
			<path d="M147.069,212.029h73.139c2.57,0,4.675-2.091,4.675-4.667v-73.139c0-2.575-2.102-4.669-4.675-4.669h-73.139
				c-2.57,0-4.675,2.092-4.675,4.669v73.139C142.397,209.938,144.499,212.029,147.069,212.029z"/>
			<path d="M320.218,383.608v-0.003c-2.975,0-5.975,1.144-8.253,3.425c-2.281,2.268-3.415,5.266-3.415,8.253v65.193l76.869-76.869
				H320.218z"/>
			<path d="M147.072,281.198h219.231c2.56,0,4.672-2.091,4.672-4.662v-2.944c0-2.583-2.112-4.685-4.672-4.685H147.069
				c-2.57,0-4.675,2.102-4.675,4.685v2.944h0.003C142.397,279.107,144.499,281.198,147.072,281.198z"/>
			<path d="M366.3,129.554H256c-2.57,0-4.669,2.092-4.669,4.669v2.949c0,2.57,2.097,4.68,4.669,4.68h110.3
				c2.56,0,4.672-2.107,4.672-4.68v-2.949C370.972,131.648,368.86,129.554,366.3,129.554z"/>
			<path d="M370.975,311.626v-2.947c0-2.57-2.112-4.672-4.672-4.672H147.069c-2.57,0-4.675,2.102-4.675,4.672v2.947h0.003
				c0,2.57,2.102,4.672,4.675,4.672h219.231C368.863,316.298,370.975,314.196,370.975,311.626z"/>
			<path d="M147.069,339.098c-2.57,0-4.675,2.112-4.675,4.675v2.944h0.003c0,2.57,2.102,4.685,4.675,4.685h104.94
				c2.57,0,4.672-2.115,4.672-4.685v-2.944c0-2.563-2.102-4.675-4.672-4.675H147.069z"/>
			<path d="M187.868,81.308h136.274c1.188,0,2.373-0.463,3.29-1.385c0.909-0.906,1.382-2.092,1.382-3.279V39.288
				c0-4.173-1.618-8.353-4.797-11.548c-3.19-3.195-7.37-4.787-11.548-4.787h-33.523C278.948,10.273,268.677,0,256,0
				c-12.672,0-22.945,10.273-22.945,22.953h-33.518c-4.183,0-8.358,1.592-11.558,4.787c-3.169,3.197-4.79,7.375-4.79,11.548v37.358
				c0,1.185,0.474,2.373,1.38,3.279C185.485,80.847,186.67,81.308,187.868,81.308z M256,12.262c5.908,0,10.696,4.787,10.696,10.691
				c0,5.901-4.787,10.691-10.696,10.691c-5.903,0-10.685-4.79-10.685-10.691C245.315,17.05,250.097,12.262,256,12.262z"/>
		</g>
	</g>
</g>
<g>
</g>
<g>
</g>
<g>
</g>
<g>
</g>
<g>
</g>
<g>
</g>
<g>
</g>
<g>
</g>
<g>
</g>
<g>
</g>
<g>
</g>
<g>
</g>
<g>
</g>
<g>
</g>
<g>
</g>
</svg>
